<?xml version="1.0" standalone="no"?>
<!DOCTYPE svg PUBLIC "-//W3C//DTD SVG 20010904//EN"
 "http://www.w3.org/TR/2001/REC-SVG-20010904/DTD/svg10.dtd">
<svg version="1.0" xmlns="http://www.w3.org/2000/svg"
 width="512.000000pt" height="512.000000pt" viewBox="0 0 512.000000 512.000000"
 preserveAspectRatio="xMidYMid meet">

<g transform="translate(0.000000,512.000000) scale(0.100000,-0.100000)"
fill="#000000" stroke="none">
<path d="M2145 5114 c-749 -28 -1264 -73 -1420 -125 -285 -95 -499 -309 -594
-594 -75 -227 -141 -1278 -127 -2052 12 -742 67 -1438 127 -1618 105 -316 367
-552 688 -620 36 -7 163 -23 281 -34 1001 -95 2016 -93 3000 4 200 20 292 43
415 104 190 94 332 236 426 426 61 123 84 215 104 415 97 984 99 1999 4 3000
-23 239 -36 315 -74 416 -104 275 -346 494 -630 569 -109 28 -564 71 -1015 95
-197 11 -1018 20 -1185 14z m860 -1394 c276 -13 576 -39 660 -56 165 -33 334
-152 394 -278 31 -64 47 -145 78 -386 24 -190 24 -690 0 -880 -44 -347 -63
-405 -171 -508 -76 -73 -194 -135 -301 -156 -159 -33 -719 -66 -1105 -66 -384
0 -945 33 -1105 66 -152 30 -326 148 -389 263 -31 58 -56 177 -83 391 -25 205
-25 695 0 900 35 285 63 384 131 461 77 88 219 168 343 194 241 49 1067 78
1548 55z"/>
<path d="M2180 2560 l0 -612 33 21 c17 11 240 148 494 303 254 156 462 285
462 288 0 3 -208 132 -462 288 -254 155 -477 292 -494 303 l-33 21 0 -612z"/>
</g>
</svg>
