<?xml version="1.0" standalone="no"?>
<!DOCTYPE svg PUBLIC "-//W3C//DTD SVG 20010904//EN"
 "http://www.w3.org/TR/2001/REC-SVG-20010904/DTD/svg10.dtd">
<svg version="1.0" xmlns="http://www.w3.org/2000/svg"
 width="860.000000pt" height="791.000000pt" viewBox="0 0 860.000000 791.000000"
 preserveAspectRatio="xMidYMid meet">

<g transform="translate(0.000000,791.000000) scale(0.100000,-0.100000)"
fill="#000000" stroke="none">
<path d="M3400 7490 c-680 -67 -1373 -375 -1917 -853 -608 -534 -987 -1210
-1137 -2028 -61 -333 -61 -839 0 -1174 136 -746 450 -1352 968 -1870 533 -532
1161 -859 1881 -979 211 -36 347 -46 600 -46 249 0 386 11 595 46 301 51 580
138 920 289 525 233 957 327 1435 312 390 -12 635 -74 1005 -252 257 -124 282
-130 372 -99 168 57 230 260 122 401 -86 113 -582 334 -914 407 -177 39 -325
55 -622 67 -150 6 -274 12 -276 14 -2 2 33 49 78 106 343 437 598 980 700
1489 43 213 60 370 67 601 17 589 -108 1143 -378 1679 -171 340 -364 606 -639
880 -531 531 -1159 855 -1910 986 -146 25 -177 27 -510 29 -195 2 -393 0 -440
-5z m532 -854 c98 -19 173 -48 248 -97 276 -178 419 -516 345 -814 -52 -212
-211 -414 -401 -508 -117 -59 -178 -72 -334 -72 -125 0 -155 3 -215 23 -261
87 -451 288 -522 552 -27 99 -24 274 6 370 121 392 486 620 873 546z m-1695
-1276 c235 -60 444 -260 530 -505 25 -73 28 -92 28 -225 0 -162 -11 -213 -72
-335 -78 -156 -184 -260 -352 -344 -149 -76 -357 -97 -514 -53 -263 74 -458
262 -539 522 -20 64 -23 95 -23 215 1 130 3 146 32 228 41 117 83 186 172 279
195 207 467 287 738 218z m3403 16 c178 -29 292 -89 426 -221 77 -77 98 -105
137 -185 26 -52 54 -122 62 -154 47 -188 18 -404 -77 -564 -18 -31 -78 -102
-133 -158 -82 -82 -114 -108 -175 -137 -265 -126 -557 -105 -785 57 -173 124
-290 325 -315 544 -31 275 104 549 348 707 93 60 171 91 270 109 101 19 140
19 242 2z m-1727 -1079 c89 -38 177 -175 177 -277 0 -106 -81 -229 -179 -273
-71 -32 -179 -29 -254 8 -192 95 -230 336 -76 480 71 66 128 86 230 80 37 -2
82 -10 102 -18z m-1106 -968 c270 -37 480 -196 598 -452 44 -96 55 -156 55
-296 0 -197 -49 -334 -170 -479 -224 -266 -606 -350 -906 -199 -206 104 -362
299 -409 513 -26 113 -17 302 19 403 68 194 193 341 366 430 161 83 277 104
447 80z m2268 -19 c219 -69 384 -214 475 -414 49 -108 64 -179 64 -316 0 -148
-15 -217 -76 -340 -33 -68 -59 -102 -132 -176 -102 -102 -188 -158 -311 -201
-74 -26 -91 -28 -230 -28 -136 1 -157 3 -230 28 -106 35 -194 88 -277 166 -83
77 -126 135 -173 230 -91 183 -99 409 -22 601 41 101 88 170 172 255 110 110
229 177 379 211 90 20 271 12 361 -16z"/>
</g>
</svg>
